<svg xmlns="http://www.w3.org/2000/svg" viewBox="0 0 512 512"><defs><linearGradient id="rbi-authorized-badge-a" x1="256" x2="256" y1="651.3" y2="-189.1" gradientUnits="userSpaceOnUse"><stop offset="0" stop-color="#fff"/><stop offset=".4" stop-color="#5392ff"/><stop offset=".7" stop-color="#0064ff"/><stop offset="1" stop-color="#0a10b5"/></linearGradient></defs><path fill="url(#rbi-authorized-badge-a)" d="M503.5 250L481 287.9c-5.5 9.2-7.5 20-5.8 30.5l1 6.2 6.1 37.2c3.5 21.7-9 42.8-29.8 50.1l-41.6 14.5c-10.1 3.5-18.6 10.5-24 19.7L364.4 484c-11.2 18.9-34.4 27.1-55 19.2l-41.2-15.6c-10-3.7-21-3.9-31-.4l-41.6 14.5c-20.8 7.3-43.8-1.4-54.5-20.6l-21.6-38.4c-5.2-9.3-13.5-16.5-23.5-20.2l-41.2-15.6c-20.6-7.8-32.6-29.2-28.5-50.8l8.2-43.3c2-10.5.2-21.3-5-30.6L7.9 243.8c-9.3-16.6-7.2-36.9 4.6-51.1 1.9-2.3 3.9-4.3 6.2-6.2l34.1-27.9c8.3-6.8 13.9-16.2 15.8-26.7l8.2-43.3c4.1-21.6 23.1-37.2 45.1-36.9l44 .5c10.7.1 21-3.5 29.3-10.2l34.1-27.9c17-13.9 41.6-13.6 58.3.7L321 43.5c8.1 7 18.4 10.8 29 11l44 .5c22 .3 40.7 16.3 44.2 38l7.1 43.5c1.7 10.5 7.1 20.1 15.2 27.1l33.4 28.7c16.7 14.4 20.7 38.6 9.4 57.6z"/><path fill="#fff" d="M233.8 311.2l-55.4-56.7 14.1-13.8 41.6 42.7 84.8-82.8 13.8 14.1-98.9 96.5z"/><path d="M86.2 208.7l3.5-9.9c.5-1.4 1.1-2.6 1.8-3.8s1.5-2.1 2.5-2.8 2.1-1.2 3.3-1.4c1.2-.2 2.6 0 4.2.5 1 .3 1.8.8 2.5 1.4.7.6 1.3 1.2 1.7 1.9.4.7.7 1.6.9 2.5.2.9.2 1.8 0 2.9l14.5-3.6-2 5.7-13.5 3.2-1.3 3.7 11 3.9-1.9 5.3-27.3-9.6zm16.1-5.3c.3-.8.4-1.5.5-2.2 0-.7 0-1.3-.2-1.9-.2-.6-.5-1.1-1-1.6s-1.1-.8-1.9-1.1c-.8-.3-1.6-.4-2.2-.3-.6 0-1.2.3-1.7.7-.5.4-.9.9-1.2 1.5-.3.6-.6 1.3-.9 2l-1.6 4.4 8.6 3 1.6-4.4zm-3-27.5l5.8-9.8c.7-1.1 1.4-2.1 2.2-3 .8-.9 1.7-1.5 2.6-2s2-.6 3.1-.6 2.3.5 3.6 1.3c1.4.8 2.3 1.8 2.8 3s.5 2.6.1 4.1c1.4-1.5 2.8-2.4 4.2-2.6 1.5-.3 3 .1 4.8 1.2 1.3.8 2.3 1.7 2.9 2.7.6 1 1 2.1 1 3.2s0 2.3-.5 3.4c-.4 1.2-.9 2.4-1.6 3.5l-6.2 10.4-24.8-14.8zm15.9-2.9c.4-.7.7-1.3.9-1.9.2-.6.3-1.1.2-1.7 0-.5-.3-1-.7-1.5-.4-.5-.9-.9-1.6-1.4-.7-.4-1.3-.6-1.9-.7-.6 0-1.1 0-1.6.3-.5.2-.9.6-1.3 1.1s-.8 1-1.1 1.6l-2.6 4.4 7 4.2 2.7-4.5zm11.4 5.9c.4-.7.7-1.4.9-2 .2-.6.2-1.2.2-1.8 0-.6-.3-1.1-.7-1.6-.4-.5-.9-1-1.6-1.4-.8-.5-1.5-.7-2.2-.8-.7 0-1.3 0-1.8.3-.6.3-1.1.6-1.5 1.2-.5.5-.9 1.1-1.3 1.8l-2.9 4.8 7.8 4.7 3.1-5.2zm-8.4-31.4l3.6-4.3 22.3 18.4-3.6 4.3-22.3-18.4zm41.6-37.7l6.2-3.8 23.5 19.5-4.9 3-5.3-4.5-9.7 6 1.7 6.8-4.5 2.8-6.9-29.7zm16.2 11.4l-11-9.3 3.5 14 7.5-4.6zm14.1-27.1l5.9 16.4c.4 1 .8 1.9 1.2 2.7.5.8 1 1.4 1.6 1.9.6.5 1.4.7 2.3.8.9 0 1.9 0 3.1-.5 1.2-.4 2.1-1 2.7-1.6.6-.6 1-1.3 1.2-2.1.2-.8.2-1.7 0-2.6-.2-.9-.4-2-.8-3L201.5 90l5.3-1.9 5.9 16.5c1.3 3.6 1.3 6.7 0 9.3-1.2 2.6-3.6 4.5-7.2 5.8-3.6 1.3-6.6 1.3-9.2.2-2.5-1.2-4.4-3.5-5.7-7l-6-16.8 5.3-1.9zm37-5.7l-8 1.2-.6-4.3 21.5-3.2.6 4.3-8 1.2 3.6 24.3-5.5.8-3.6-24.3zm25.1-7l5.6.3-.7 12.2 13.3.7.7-12.2 5.6.3-1.5 28.9-5.6-.3.7-12.2-13.3-.7-.6 12.2-5.6-.3 1.5-28.9zm43.9 35.6c-2.1-.6-3.9-1.5-5.4-2.8-1.5-1.2-2.7-2.6-3.6-4.3-.9-1.6-1.4-3.4-1.6-5.4-.2-2 0-4 .7-6.1.6-2 1.5-3.8 2.7-5.4 1.2-1.5 2.7-2.7 4.3-3.6 1.6-.9 3.5-1.4 5.4-1.6 2-.2 4 0 6.1.6 2.1.6 3.9 1.5 5.4 2.7 1.5 1.2 2.7 2.6 3.6 4.3.9 1.6 1.4 3.4 1.5 5.3.2 1.9 0 3.9-.7 6-.6 2.1-1.5 3.9-2.7 5.5-1.2 1.5-2.6 2.8-4.3 3.7-1.6.9-3.4 1.4-5.4 1.6-2 .2-4 0-6.1-.6zm1.5-4.2c1.5.4 2.8.5 4 .3 1.2-.3 2.3-.7 3.3-1.5 1-.7 1.8-1.6 2.5-2.7s1.2-2.3 1.6-3.6c.4-1.4.6-2.7.6-4 0-1.3-.2-2.5-.7-3.6-.5-1.1-1.1-2.1-2.1-3-.9-.9-2.1-1.5-3.6-1.9-1.5-.4-2.8-.5-4.1-.3s-2.3.7-3.3 1.4-1.8 1.7-2.5 2.8c-.7 1.1-1.2 2.4-1.6 3.8-.4 1.3-.6 2.6-.5 3.9 0 1.3.3 2.5.8 3.6s1.2 2.1 2.1 3c.9.9 2.1 1.5 3.5 1.9zm33.3-14l9.1 5.1c1.3.7 2.4 1.5 3.4 2.4 1 .9 1.8 1.9 2.3 3 .5 1.1.8 2.2.8 3.5 0 1.3-.4 2.6-1.2 4-.5.9-1.1 1.6-1.8 2.2s-1.4 1-2.2 1.3c-.8.3-1.7.5-2.6.5-.9 0-1.9-.1-2.8-.4l1.1 14.8-5.3-2.9-.9-13.8-3.4-1.9-5.7 10.2-4.9-2.7 14.1-25.3zm2.5 16.7c.7.4 1.4.7 2.1.9.7.2 1.3.2 1.9.2.6 0 1.2-.3 1.7-.7.5-.4 1-.9 1.4-1.7.4-.8.7-1.5.7-2.1 0-.6-.1-1.2-.4-1.8-.3-.5-.7-1-1.2-1.5-.5-.4-1.1-.8-1.8-1.2l-4.1-2.3-4.4 8 4.1 2.3zm26.6 1.3l4.4 3.4-17.7 22.8-4.4-3.4 17.7-22.8zm-6.2 28.9l26.8-4.4-9.6-10 3.2-3.1 14.7 15.2-1.6 1.5-26.5 4.6 10.1 10.5-3.2 3.1-15.5-16 1.6-1.5zm42.4 7.5l10.6 16-3.6 2.4-7.5-11.4-6.5 4.3 6.1 9.2-3.4 2.3-6.1-9.2-6.9 4.6 7.9 11.9-3.6 2.4-10.9-16.6 24.1-15.9zm16.9 27.8l3.6 9c.9 2.2 1.4 4.3 1.5 6.2.1 2-.1 3.8-.8 5.5-.6 1.7-1.7 3.2-3.1 4.5-1.4 1.3-3.2 2.4-5.5 3.3-2.2.9-4.2 1.3-6.2 1.3-1.9 0-3.7-.4-5.3-1.2-1.6-.8-3.1-1.9-4.3-3.4s-2.3-3.3-3.2-5.5l-3.6-9 26.8-10.8zm-19.2 18c.6 1.6 1.4 2.8 2.3 3.8.9.9 1.9 1.6 3 2 1.1.4 2.3.5 3.6.4 1.3-.1 2.7-.5 4.2-1.1 3-1.2 5-2.8 6-4.9 1-2 .9-4.6-.4-7.7l-1.4-3.6-18.7 7.5 1.5 3.7zM421.8 267.4v-4.5c0-.3 0-.6-.4-.7l-3.9-2.3c-.3-.2-.6-.2-.8 0l-3.9 2.2c-.3.1-.4.4-.4.7v4.5c0 .3 0 .6.4.7l3.9 2.3c.3.2.6.2.8 0l3.9-2.2c.3-.1.4-.4.4-.7zm-322 1.6v-4.5c0-.3 0-.6-.4-.7l-3.9-2.3c-.3-.2-.6-.2-.8 0l-3.9 2.2c-.3.1-.4.4-.4.7v4.5c0 .3 0 .6.4.7l3.9 2.3c.3.2.6.2.8 0l3.9-2.2c.3-.1.4-.4.4-.7zM117 315.2l4.3 9c.6 1.2 1.1 2.5 1.3 3.8.3 1.3.4 2.4.2 3.6-.2 1.1-.6 2.2-1.3 3.2-.7 1-1.8 1.8-3.2 2.5-.9.4-1.8.7-2.6.8-.9 0-1.7 0-2.5-.2s-1.5-.6-2.3-1c-.7-.5-1.4-1.1-2-1.9l-7.4 12.2L99 342l6.9-11.3-1.6-3.4-10 4.8-2.3-4.8 24.9-12zm-7.2 14.4c.3.7.7 1.3 1.1 1.8.4.5.9.9 1.4 1.2s1.1.4 1.7.4c.6 0 1.3-.2 2.1-.5.8-.4 1.3-.8 1.7-1.3.4-.5.6-1 .7-1.6 0-.6 0-1.2-.2-1.8-.2-.6-.4-1.3-.7-1.9l-2-4-7.8 3.8 2 4zm20.1 10.5l6.5 8.8c.7 1 1.4 2 1.8 3.1.5 1 .7 2 .8 3.1 0 1-.2 2-.6 2.9-.5 1-1.3 1.9-2.4 2.7-1.2.9-2.4 1.3-3.7 1.3-1.2 0-2.5-.5-3.7-1.4.8 1.7 1.1 3.3.8 4.7-.3 1.4-1.2 2.6-2.8 3.8-1.2.9-2.3 1.4-3.4 1.6s-2.2 0-3.2-.3-2-.9-2.9-1.7c-.9-.8-1.7-1.7-2.5-2.7l-6.9-9.3 22.2-16.4zm-12.7 23c.5.6.9 1.1 1.4 1.5.5.4 1 .7 1.5.8.5.1 1.1.1 1.7 0 .6-.1 1.2-.4 1.8-.9.7-.5 1.2-1.1 1.5-1.6.3-.6.4-1.1.4-1.7 0-.6-.2-1.2-.5-1.8s-.6-1.2-1.1-1.8l-3.2-4.3-7 5.2 3.4 4.6zm9.5-7.9c.4.6.9 1.1 1.3 1.5.4.4.9.7 1.4.8.5.1 1 .1 1.6 0s1.2-.5 1.8-.9c.6-.4 1-.9 1.3-1.4.2-.5.3-1 .3-1.5s-.2-1-.4-1.6c-.3-.5-.6-1.1-1-1.6l-2.9-4-6.3 4.7 3 4zm21.2 7.2l3.8 3.8-19.7 19.4-3.8-3.8 19.6-19.4zm36.1 27.9l6.1 3.2-4.5 28.8-4.9-2.6 1.1-6.6-9.6-5-4.7 4.7-4.5-2.3 21-20.2zm-1.4 18.8l2.3-13.6-9.8 9.7 7.5 3.9zm26-8l-4.6 16c-.3 1-.5 1.9-.6 2.8 0 .9 0 1.7.2 2.4s.6 1.4 1.3 1.9c.6.5 1.5 1 2.7 1.3 1.2.3 2.2.4 3 .3.8-.1 1.6-.5 2.2-1s1.1-1.2 1.5-2c.4-.8.8-1.8 1.1-2.8l4.6-15.7 5.1 1.5-4.7 16.1c-1 3.5-2.7 6-5.1 7.2-2.4 1.3-5.3 1.4-8.8.4-3.5-1-5.9-2.7-7.2-5-1.3-2.3-1.5-5.2-.5-8.6l4.8-16.4 5.1 1.5zm29.4 10.6l-7.7-.8.4-4.2 20.7 2-.4 4.2-7.7-.8-2.3 23.4-5.3-.5 2.3-23.4zm19.6-2.7l5.3-.5 1 11.7 12.7-1.1-1-11.7 5.3-.5 2.4 27.5-5.3.5-1-11.7-12.7 1.1 1 11.7-5.3.5-2.4-27.5zm51.6 19.4c-2 .6-3.9.9-5.8.7-1.9-.2-3.6-.6-5.1-1.5-1.6-.8-2.9-2-4.1-3.4-1.2-1.5-2.1-3.2-2.7-5.2-.6-1.9-.8-3.8-.7-5.7.2-1.9.7-3.6 1.5-5.2s2-3 3.4-4.2 3.2-2.1 5.2-2.7 3.9-.9 5.7-.7c1.8.2 3.5.6 5.1 1.5 1.5.8 2.9 2 4.1 3.4 1.2 1.4 2.1 3.1 2.7 5.1.6 2 .9 3.9.7 5.8-.1 1.9-.6 3.6-1.4 5.2-.8 1.6-1.9 3-3.4 4.2-1.4 1.2-3.2 2.1-5.2 2.7zm-1-4.1c1.4-.4 2.5-1.1 3.3-1.9.8-.9 1.4-1.8 1.8-2.9.4-1.1.5-2.2.5-3.5 0-1.2-.3-2.5-.7-3.7-.4-1.3-1-2.5-1.7-3.5s-1.5-1.9-2.5-2.5c-1-.6-2-1.1-3.2-1.2-1.2-.2-2.5 0-3.9.4s-2.5 1.1-3.4 1.9c-.9.8-1.5 1.8-1.8 2.9-.4 1.1-.5 2.3-.5 3.5 0 1.3.3 2.6.7 3.9.4 1.2.9 2.4 1.7 3.4.7 1 1.6 1.8 2.6 2.5 1 .6 2.1 1 3.3 1.2 1.2.2 2.5 0 3.8-.4zm12-29.9l8.7-4.9c1.2-.7 2.4-1.2 3.7-1.6 1.2-.4 2.4-.5 3.6-.4 1.1 0 2.2.5 3.2 1.1 1 .6 1.9 1.7 2.7 3 .5.9.8 1.7.9 2.6.1.8.1 1.7 0 2.5-.2.8-.5 1.6-.9 2.3s-1 1.5-1.7 2.1l12.6 6.6-5 2.8-11.7-6.2-3.3 1.8 5.5 9.7-4.7 2.6-13.5-24.1zm14.9 6.3c.7-.4 1.2-.8 1.7-1.3s.9-1 1.1-1.5c.2-.5.3-1.1.3-1.7 0-.6-.3-1.3-.7-2-.4-.7-.9-1.3-1.4-1.6s-1.1-.5-1.6-.6c-.6 0-1.2 0-1.8.3-.6.2-1.3.5-1.9.9l-3.9 2.2 4.3 7.6 3.9-2.2zm9.6-21.4l4.2-3.3 16.9 21.9-4.2 3.3-16.9-21.9zm27.8 10.6l-4.8-25.5-9.3 9.4-3-3 14.2-14.4 1.5 1.5 5.1 25.2 9.8-10 3 3-15 15.2-1.5-1.5zm1.1-38.5l10.5-15.1 3.4 2.4-7.4 10.7 6.1 4.2 6-8.7 3.2 2.2-6 8.7 6.5 4.5 7.8-11.2 3.4 2.4-10.8 15.6-22.7-15.8zm14.1-21.3l3.8-8.5c.9-2.1 2-3.8 3.3-5.2 1.3-1.4 2.7-2.4 4.3-3.1 1.6-.7 3.3-1 5.1-.9 1.8 0 3.8.6 5.9 1.5 2.1.9 3.7 2 5 3.4 1.3 1.3 2.2 2.8 2.7 4.4s.7 3.4.5 5.3c-.2 1.9-.7 3.8-1.6 5.8l-3.8 8.5-25.3-11.2zm25.2 1.2c.7-1.5 1-2.8 1.1-4.1 0-1.2-.2-2.4-.6-3.4-.5-1-1.2-1.9-2.2-2.7-1-.8-2.1-1.5-3.5-2.1-2.9-1.3-5.3-1.6-7.4-.9-2.1.7-3.7 2.5-5 5.4l-1.5 3.4 17.6 7.8 1.5-3.5z" fill="#192e57"/></svg>